Coordinates
version=1
nRows=65
nColumns=12
inDegrees=yes

Units are S.I. units (second, meters, Newtons, ...)
Angles are in degrees

endheader
time	SC_y	SC_z	SC_x	AC_y	AC_z	AC_x	GH_y	GH_z	GH_yy	EL_x	PS_y
       0.0              -42.49          36.43          26.71          48.13         -3.009          2.027          155.7          64.42         -75.93          35.57          29.05
   0.01369              -42.49          36.43          26.71          48.13         -3.008          2.028          155.7          64.41         -75.91          35.57          29.07
   0.02737               -42.5          36.43          26.71          48.13         -3.007           2.03          155.7           64.4         -75.88          35.57          29.08
   0.04106               -42.5          36.43          26.71          48.13         -3.005          2.031          155.7          64.39         -75.86          35.56           29.1
   0.05474               -42.5          36.43          26.71          48.13         -3.004          2.033          155.7          64.37         -75.83          35.56          29.12
   0.06843              -42.51          36.42          26.71          48.14         -3.003          2.035          155.7          64.36         -75.79          35.56          29.14
   0.08211              -42.51          36.42          26.71          48.14         -3.002          2.036          155.6          64.34         -75.76          35.56          29.16
    0.0958              -42.51          36.42          26.71          48.14           -3.0          2.038          155.6          64.33         -75.73          35.55          29.18
    0.1095              -42.52          36.42          26.71          48.14         -2.999           2.04          155.6          64.31         -75.69          35.55           29.2
    0.1232              -42.52          36.41          26.71          48.15         -2.997          2.043          155.6          64.29         -75.65          35.55          29.23
    0.1369              -42.52          36.41          26.71          48.15         -2.995          2.045          155.5          64.27          -75.6          35.54          29.26
    0.1505              -42.53          36.41          26.71          48.15         -2.993          2.048          155.5          64.25         -75.55          35.54          29.29
    0.1642              -42.53           36.4          26.71          48.16         -2.991          2.051          155.5          64.22          -75.5          35.53          29.32
    0.1779              -42.54           36.4          26.71          48.16         -2.989          2.054          155.5           64.2         -75.45          35.53          29.35
    0.1916              -42.55           36.4          26.71          48.17         -2.987          2.057          155.4          64.17         -75.38          35.52          29.39
    0.2053              -42.55          36.39          26.71          48.17         -2.984           2.06          155.4          64.14         -75.32          35.52          29.43
     0.219              -42.56          36.39          26.71          48.18         -2.982          2.064          155.3           64.1         -75.25          35.51          29.47
    0.2327              -42.57          36.38          26.71          48.18         -2.978          2.069          155.3          64.07         -75.17           35.5          29.52
    0.2463              -42.57          36.38          26.71          48.19         -2.975          2.073          155.3          64.03         -75.09           35.5          29.57
      0.26              -42.58          36.37           26.7           48.2         -2.971          2.078          155.2          63.98         -74.99          35.49          29.63
    0.2737              -42.59          36.36           26.7          48.21         -2.967          2.084          155.1          63.94         -74.89          35.48          29.69
    0.2874               -42.6          36.36           26.7          48.21         -2.963           2.09          155.1          63.88         -74.78          35.47          29.76
    0.3011              -42.62          36.35           26.7          48.22         -2.958          2.097          155.0          63.83         -74.66          35.46          29.83
    0.3148              -42.63          36.34           26.7          48.23         -2.953          2.104          154.9          63.76         -74.52          35.45          29.92
    0.3285              -42.64          36.33           26.7          48.24         -2.947          2.112          154.8          63.69         -74.37          35.43          30.01
    0.3421              -42.66          36.32           26.7          48.26          -2.94          2.122          154.8          63.61          -74.2          35.42          30.11
    0.3558              -42.68          36.31           26.7          48.27         -2.933          2.132          154.6          63.52         -74.01           35.4          30.23
    0.3695               -42.7          36.29           26.7          48.29         -2.924          2.144          154.5          63.42         -73.79          35.38          30.36
    0.3832              -42.72          36.28           26.7          48.31         -2.915          2.157          154.4          63.31         -73.55          35.36          30.51
    0.3969              -42.75          36.26           26.7          48.33         -2.904          2.172          154.2          63.18         -73.27          35.34          30.68
    0.4106              -42.78          36.24           26.7          48.35         -2.892          2.189          154.0          63.04         -72.96          35.31          30.87
    0.4243              -42.81          36.22           26.7          48.38         -2.877          2.209          153.8          62.87          -72.6          35.28          31.09
    0.4379              -42.85          36.19           26.7          48.41         -2.861          2.231          153.6          62.67         -72.19          35.24          31.34
    0.4516               -42.9          36.16           26.7          48.45         -2.842          2.258          153.3          62.45          -71.7           35.2          31.64
    0.4653              -42.95          36.12           26.7          48.49          -2.82          2.289          153.0          62.19         -71.14          35.15          31.98
     0.479              -43.02          36.08           26.7          48.54         -2.794          2.325          152.6          61.88         -70.47          35.09          32.39
    0.4927              -43.09          36.02           26.7           48.6         -2.762          2.368          152.2          61.51         -69.68          35.02          32.87
    0.5064              -43.18          35.96           26.7          48.67         -2.725           2.42          151.6          61.06         -68.73          34.93          33.45
    0.5201               -43.3          35.89           26.7          48.76          -2.68          2.482          151.0          60.53         -67.58          34.83          34.15
    0.5337              -43.43           35.8          26.69          48.87         -2.625          2.559          150.2          59.87         -66.18          34.71          35.01
    0.5474               -43.6          35.68          26.69           49.0         -2.557          2.653          149.2          59.07         -64.45          34.55          36.06
    0.5611               -43.8          35.54          26.69          49.16         -2.472          2.771          148.0          58.06         -62.29          34.36          37.38
    0.5748              -44.06          35.37          26.69          49.37         -2.365          2.919          146.5          56.79         -59.57          34.12          39.04
    0.5885               -44.4          35.14          26.68          49.63         -2.229          3.108          144.5          55.18         -56.11          33.82          41.15
    0.6022              -44.82          34.85          26.68          49.97         -2.055          3.349          142.0          53.12         -51.69          33.42          43.85
    0.6159              -45.37          34.48          26.67           50.4         -1.831          3.659          138.8          50.47         -46.01          32.92          47.32
    0.6295              -46.06          34.01          26.66          50.96         -1.546          4.054          134.6          47.08         -38.76          32.28          51.75
    0.6432              -46.94          33.41          26.65          51.65         -1.187          4.551          129.5          42.83         -29.63          31.47          57.31
    0.6569              -48.01          32.69          26.63           52.5        -0.7498          5.157          123.2          37.65         -18.52          30.49           64.1
    0.6706              -49.25          31.85          26.62          53.48         -0.243           5.86          115.9          31.64         -5.638          29.35          71.96
    0.6843              -50.59          30.94           26.6          54.54         0.3058          6.621          107.9          25.13          8.312          28.11          80.48
     0.698              -51.93          30.03          26.58           55.6         0.8546          7.381          100.0          18.63          22.26          26.88          88.99
    0.7117              -53.16          29.19          26.57          56.58          1.361          8.084          92.71          12.62          35.14          25.74          96.85
    0.7253              -54.23          28.46          26.55          57.43          1.799           8.69          86.41          7.438          46.26          24.75          103.6
     0.739              -55.11          27.87          26.54          58.12          2.157          9.187          81.23          3.185          55.38          23.95          109.2
    0.7527               -55.8          27.39          26.53          58.67          2.443          9.582          77.12        -0.1979          62.63          23.31          113.6
    0.7664              -56.35          27.02          26.53          59.11          2.666          9.892           73.9         -2.846          68.31           22.8          117.1
    0.7801              -56.78          26.73          26.52          59.44           2.84          10.13          71.38          -4.91          72.74          22.41          119.8
    0.7938              -57.11          26.51          26.52          59.71          2.976          10.32          69.42         -6.522          76.19           22.1          121.9
    0.8075              -57.37          26.33          26.51          59.91          3.083          10.47          67.88          -7.79          78.91          21.86          123.6
    0.8211              -57.58          26.19          26.51          60.08          3.168          10.59          66.66         -8.797          81.07          21.67          124.9
    0.8348              -57.74          26.08          26.51          60.21          3.236          10.68          65.67         -9.604           82.8          21.52          125.9
    0.8485              -57.88          25.99          26.51          60.32          3.291          10.76          64.88         -10.26           84.2           21.4          126.8
    0.8622              -57.99          25.91           26.5           60.4          3.337          10.82          64.23         -10.79          85.35          21.29          127.5
    0.8759              -58.08          25.85           26.5          60.48          3.374          10.87          63.69         -11.24           86.3          21.21          128.1
